<svg width="32" height="32" viewBox="0 0 32 32" fill="none" xmlns="http://www.w3.org/2000/svg">
<g clip-path="url(#clip0)">
<path d="M30.7331 7.06066L16.2038 0.0465327C16.075 -0.0155923 15.925 -0.0155923 15.7963 0.0465327L1.26695 7.06066C1.10495 7.13885 1.00201 7.30291 1.00201 7.48278V24.5171C1.00201 24.697 1.10495 24.861 1.26695 24.9392L15.7962 31.9533C15.8606 31.9844 15.9303 32 16 32C16.0697 32 16.1394 31.9844 16.2038 31.9533L30.7331 24.9392C30.8951 24.861 30.998 24.697 30.998 24.5171V7.48285C30.998 7.30285 30.895 7.13891 30.7331 7.06066ZM16 0.98922L29.4511 7.48278L25.5519 9.36516C25.5272 9.34635 25.5011 9.32897 25.4725 9.31516L12.1128 2.86578L16 0.98922ZM11.0542 3.39578L24.4857 9.87991L21.7348 11.208L8.30883 4.72647L11.0542 3.39578ZM24.8 10.7692V15.6783L22.2304 16.9188V12.0097L24.8 10.7692ZM30.0605 24.223L16.4688 30.7843V14.7911L22.1424 12.0522C22.3755 11.9397 22.4733 11.6595 22.3607 11.4263C22.2481 11.1932 21.968 11.0953 21.7348 11.208L16 13.9764L12.6971 12.3819C12.464 12.2692 12.1838 12.3671 12.0712 12.6002C11.9586 12.8333 12.0564 13.1136 12.2895 13.2262L15.5313 14.7911V30.7843L1.93951 24.2228V8.2296L12.2895 13.2262C12.3552 13.2579 12.4246 13.2729 12.493 13.2729C12.6672 13.2729 12.8346 13.1753 12.9154 13.0078C13.028 12.7747 12.9303 12.4945 12.6971 12.3819L2.54895 7.48278L7.20552 5.23478L21.2864 12.0325C21.2885 12.0353 21.2908 12.0379 21.2929 12.0407V17.6657C21.2929 17.827 21.3758 17.9769 21.5125 18.0627C21.5883 18.1103 21.6749 18.1344 21.7617 18.1344C21.8312 18.1344 21.9009 18.119 21.9655 18.0878L25.4725 16.3947C25.6345 16.3165 25.7375 16.1525 25.7375 15.9726V10.3167L30.0605 8.22966V24.223Z" fill="black"/>
</g>
<defs>
<clipPath id="clip0">
<rect width="32" height="32" fill="white"/>
</clipPath>
</defs>
</svg>
