<svg width="14" height="14" viewBox="0 0 14 14" fill="none" xmlns="http://www.w3.org/2000/svg">
<path fill-rule="evenodd" clip-rule="evenodd" d="M13.5889 0.411111C13.8159 0.638152 13.8159 1.00626 13.5889 1.2333L1.23336 13.5889C1.00632 13.816 0.638217 13.816 0.411178 13.5889C0.184139 13.3619 0.184139 12.9938 0.411178 12.7667L12.7667 0.411111C12.9938 0.18407 13.3619 0.18407 13.5889 0.411111Z" fill="black"/>
<path fill-rule="evenodd" clip-rule="evenodd" d="M0.411091 0.411111C0.184052 0.638152 0.184052 1.00626 0.411091 1.2333L12.7666 13.5889C12.9937 13.816 13.3618 13.816 13.5888 13.5889C13.8159 13.3619 13.8159 12.9938 13.5888 12.7667L1.23327 0.411111C1.00623 0.18407 0.63813 0.18407 0.411091 0.411111Z" fill="black"/>
</svg>
