<svg width="32" height="32" viewBox="0 0 32 32" fill="none" xmlns="http://www.w3.org/2000/svg">
<path d="M22.0151 16.8001C21.7543 16.7993 21.496 16.8503 21.2551 16.9501C21.0142 17.0499 20.7955 17.1964 20.6116 17.3813L20 17.993L19.3885 17.3815C19.2042 17.1972 18.9854 17.051 18.7446 16.9512C18.5037 16.8514 18.2456 16.8001 17.985 16.8001C17.7243 16.8001 17.4662 16.8514 17.2253 16.9511C16.9845 17.0509 16.7657 17.1971 16.5814 17.3814C16.397 17.5657 16.2508 17.7845 16.1511 18.0254C16.0513 18.2662 15.9999 18.5243 15.9999 18.785C15.9999 19.0456 16.0513 19.3037 16.151 19.5446C16.2508 19.7854 16.397 20.0042 16.5813 20.1886L19.6463 23.2537C19.6928 23.3001 19.7479 23.3369 19.8085 23.3621C19.8692 23.3872 19.9342 23.4001 19.9999 23.4001C20.0656 23.4001 20.1306 23.3872 20.1912 23.3621C20.2519 23.3369 20.307 23.3001 20.3535 23.2537L23.4188 20.1886C23.6964 19.9109 23.8854 19.5573 23.962 19.1722C24.0386 18.7872 23.9993 18.388 23.849 18.0253C23.6988 17.6626 23.4443 17.3526 23.1179 17.1345C22.7915 16.9164 22.4077 16.8 22.0151 16.8001ZM22.7116 19.4813L20 22.193L17.2885 19.4813C17.1079 19.2958 17.0077 19.0466 17.0095 18.7877C17.0113 18.5288 17.1149 18.2811 17.298 18.098C17.481 17.9149 17.7288 17.8113 17.9877 17.8096C18.2466 17.8078 18.4957 17.908 18.6813 18.0886L19.6463 19.0536C19.6928 19.1001 19.7479 19.1369 19.8085 19.162C19.8692 19.1871 19.9342 19.2001 19.9999 19.2001C20.0656 19.2001 20.1306 19.1871 20.1912 19.162C20.2519 19.1369 20.307 19.1001 20.3535 19.0536L21.3188 18.0885C21.5042 17.9074 21.7536 17.8068 22.0127 17.8083C22.2719 17.8099 22.52 17.9135 22.7033 18.0968C22.8866 18.28 22.9902 18.5282 22.9918 18.7873C22.9933 19.0465 22.8926 19.2959 22.7116 19.4813Z" fill="black"/>
<path d="M29.7549 9.06983L16.2549 1.06983C16.1775 1.02397 16.0892 0.999847 15.9992 1C15.9093 1.00015 15.821 1.02458 15.7437 1.0707L2.24375 9.12827C2.16944 9.17262 2.10792 9.23549 2.06519 9.31074C2.02247 9.38599 2.00001 9.47105 2 9.55758V30.5576C2 30.6902 2.05268 30.8174 2.14645 30.9111C2.24021 31.0049 2.36739 31.0576 2.5 31.0576H2.50106L29.5011 31C29.6335 30.9997 29.7604 30.9469 29.8539 30.8532C29.9475 30.7595 30 30.6324 30 30.5V9.50002C30 9.41321 29.9774 9.32791 29.9344 9.25249C29.8914 9.17706 29.8296 9.11412 29.7549 9.06983ZM12 17.0418V18.5C12 18.5929 12.0259 18.6839 12.0747 18.7629C12.1235 18.8419 12.1933 18.9057 12.2764 18.9472L14.0188 19.8184C14.3429 19.9792 14.6258 20.2124 14.8455 20.5C15.0651 20.7876 15.2157 21.1218 15.2855 21.4769L15.5098 22.5981C15.5291 22.6949 15.5767 22.7838 15.6465 22.8536L15.6972 22.9043C15.8714 23.0782 15.9753 23.3103 15.9889 23.556C16.0025 23.8018 15.9249 24.044 15.7709 24.236L15.6097 24.4375L15.4486 24.639C15.247 24.8909 14.9946 25.0975 14.7079 25.2452C14.4211 25.393 14.1064 25.4786 13.7842 25.4964C13.4621 25.5142 13.1399 25.4639 12.8385 25.3488C12.5372 25.2336 12.2635 25.0561 12.0354 24.828L11.8538 24.6463C11.76 24.5526 11.6328 24.4999 11.5002 24.4999C11.3676 24.4999 11.2404 24.5526 11.1466 24.6463C11.0529 24.7401 11.0002 24.8673 11.0002 24.9999C11.0002 25.1325 11.0529 25.2597 11.1466 25.3535L11.3283 25.5351C11.6342 25.8411 11.9975 26.0838 12.3972 26.2493C12.7969 26.4149 13.2254 26.5 13.6581 26.5C14.0907 26.4999 14.5191 26.4145 14.9188 26.2489C15.3185 26.0832 15.6816 25.8403 15.9874 25.5343L16.6096 26.3125C16.6744 26.3936 16.7629 26.4525 16.8627 26.481L16.9973 26.5195C17.7787 26.7455 18.4767 27.1957 19.0049 27.8143C19.5332 28.433 19.8685 29.1928 19.9694 30H8.36938L8.17562 29.3701C7.66354 27.7098 7.51863 25.9581 7.75094 24.2362C7.98325 22.5144 8.58723 20.8637 9.521 19.3985L9.922 18.7685C9.93122 18.754 9.93969 18.739 9.94738 18.7236L10.0631 18.4924C10.2497 18.1157 10.5222 17.7882 10.8587 17.5363C11.1951 17.2843 11.5861 17.1149 12 17.0418ZM17.2908 25.5631L16.6371 24.746C16.8947 24.3727 17.0177 23.9229 16.9857 23.4704C16.9538 23.0179 16.7688 22.5898 16.4612 22.2565L16.2661 21.2807C16.1668 20.7762 15.9529 20.3012 15.6407 19.8925C15.3286 19.4839 14.9267 19.1525 14.4661 18.924L13 18.191V16.6839L15.0452 16.498C15.1301 16.4902 15.2115 16.461 15.2818 16.413C15.3522 16.365 15.4091 16.2998 15.4472 16.2236L15.9472 15.2236C16.0053 15.1052 16.0142 14.9686 15.972 14.8436C15.9298 14.7186 15.8399 14.6153 15.7219 14.5563C15.6039 14.4973 15.4673 14.4873 15.342 14.5285C15.2167 14.5698 15.1127 14.6589 15.0528 14.7764L14.6773 15.5273L9.751 15.975L9.19337 15.1385L9.25881 15.0948C9.63106 14.8456 9.91425 14.4844 10.0673 14.0635C10.2204 13.6425 10.2353 13.1837 10.11 12.7537L11.7236 11.9469C11.8331 11.8921 11.9188 11.7991 11.9642 11.6854L12.5767 10.1541C12.671 9.91789 12.8157 9.70506 13.0008 9.53056C13.1858 9.35605 13.4068 9.22406 13.6481 9.14383L14.8356 8.74795C15.0182 8.68747 15.2066 8.64622 15.3978 8.62489C15.5979 8.85489 15.7776 9.10186 15.9349 9.36302L16.4442 10.2118C16.8079 10.8181 17.0001 11.5118 17 12.2188V13.2642C17 13.9272 17.2634 14.5631 17.7322 15.032C18.2011 15.5008 18.837 15.7642 19.5 15.7642C20.163 15.7642 20.7989 15.5008 21.2678 15.032C21.7366 14.5631 22 13.9272 22 13.2642C21.9999 13.0615 21.9872 12.859 21.9619 12.658C22.1621 12.9166 22.3537 13.1827 22.5365 13.4564C24.1644 15.9041 25.1933 18.7005 25.54 21.6195C25.8407 24.15 25.6165 26.7153 24.8813 29.1551L24.625 30.0104L20.9764 30.0182C20.8765 28.9927 20.4722 28.0205 19.8154 27.2266C19.1586 26.4327 18.2794 25.8534 17.2908 25.5631ZM8.54438 14.1652C8.50505 14.1062 8.47872 14.0395 8.46713 13.9696C8.45554 13.8996 8.45896 13.828 8.47716 13.7595C8.49536 13.691 8.52792 13.6271 8.57269 13.5722C8.61745 13.5172 8.6734 13.4723 8.73681 13.4406L9.18681 13.2156C9.21059 13.4177 9.17813 13.6224 9.09301 13.8072C9.00788 13.992 8.8734 14.1497 8.70438 14.2629L8.639 14.3066L8.54438 14.1652ZM19.683 10.343C20.0965 10.7092 20.4276 11.1588 20.6546 11.6623C20.8816 12.1658 20.9993 12.7117 21 13.264C21.001 13.5427 20.9238 13.8162 20.7772 14.0533C20.6307 14.2904 20.4206 14.4818 20.1709 14.6056C19.9624 14.7092 19.7328 14.7631 19.5 14.7631C19.2673 14.7631 19.0376 14.7092 18.8292 14.6056C18.5794 14.4818 18.3693 14.2905 18.2228 14.0533C18.0762 13.8162 17.999 13.5427 18 13.264V12.2188C17.9999 11.3308 17.7586 10.4596 17.3018 9.69814L16.7926 8.84933C16.7781 8.8252 16.7622 8.80189 16.7474 8.77796C17.5842 9.00533 18.3736 9.38025 19.0786 9.88508C19.2849 10.0323 19.4863 10.1849 19.683 10.343ZM29 30.0011L25.6696 30.0081L25.8393 29.4425C26.6138 26.8717 26.8499 24.1689 26.533 21.5027C26.1678 18.427 25.0838 15.4805 23.3687 12.9015C22.5315 11.6442 21.5057 10.5232 20.3275 9.57789C20.2067 9.47214 20.0806 9.37164 19.9486 9.27733C19.9333 9.26647 19.9175 9.25648 19.9011 9.24739C19.8213 9.18802 19.7411 9.12902 19.6601 9.07114C18.7008 8.38391 17.6058 7.90953 16.4484 7.67977C15.806 7.55151 15.1413 7.59289 14.5197 7.79983L13.3322 8.19564C12.9529 8.32171 12.6058 8.52909 12.3149 8.80329C12.0241 9.07749 11.7967 9.4119 11.6486 9.78314L11.1062 11.1378L8.28944 12.5462C8.0992 12.6413 7.93137 12.7758 7.79708 12.9407C7.66279 13.1057 7.5651 13.2973 7.51051 13.5028C7.45592 13.7084 7.44567 13.9232 7.48044 14.1331C7.51521 14.3429 7.59421 14.5429 7.71219 14.7199L8.08375 15.2771L9.08375 16.7771C9.13367 16.852 9.20287 16.912 9.28405 16.9508C9.36523 16.9897 9.45538 17.0058 9.545 16.9977L9.99019 16.9572C9.65148 17.2659 9.37282 17.6346 9.16825 18.0447L9.06406 18.2531L8.67694 18.8613C7.66533 20.4486 7.01102 22.2369 6.75934 24.1022C6.50767 25.9675 6.66466 27.8652 7.21944 29.6638L7.33731 30.047L3 30.0563V9.84145L16.0009 2.08177L29 9.78496V30.0011Z" fill="black"/>
<path d="M13.5 22.6875C13.8797 22.6875 14.1875 22.3797 14.1875 22C14.1875 21.6203 13.8797 21.3125 13.5 21.3125C13.1203 21.3125 12.8125 21.6203 12.8125 22C12.8125 22.3797 13.1203 22.6875 13.5 22.6875Z" fill="black"/>
<path d="M13.8125 12.5C14.1922 12.5 14.5 12.1922 14.5 11.8125C14.5 11.4328 14.1922 11.125 13.8125 11.125C13.4328 11.125 13.125 11.4328 13.125 11.8125C13.125 12.1922 13.4328 12.5 13.8125 12.5Z" fill="black"/>
</svg>
