<svg width="77" height="52" viewBox="0 0 77 52" fill="none" xmlns="http://www.w3.org/2000/svg">
<path d="M42.3868 36.8453H43.2799V38.4472H24.9582C24.5161 38.4472 23.2336 37.0877 23.2335 36.645C23.2335 35.5561 24.3598 34.8428 25.683 34.8428H26.4829V26.6248C26.1095 25.8817 24.8832 23.3145 24.8832 21.6265C24.8832 19.0973 25.5563 17.974 26.0484 17.1527L26.0487 17.1523C26.3424 16.6627 26.483 16.4107 26.483 16.0196V15.6082C26.4846 14.2503 26.4846 13.077 26.3299 12.8517H26.3283C26.3095 12.8517 26.1627 12.8158 25.6831 12.8158C23.5179 12.8158 20.0841 11.7285 20.0841 8.81087C20.0841 7.76115 21.0667 7.06347 21.9338 6.44862C22.2322 6.23746 22.5212 6.03876 22.718 5.84165C22.8838 5.67552 23.0758 5.38783 23.2787 5.08393L23.2835 5.07661C23.8381 4.24121 24.5286 3.20396 25.6831 3.20396C25.9331 3.20396 26.483 2.04161 26.483 0.801008C26.483 0.358265 26.8407 0 27.2829 0C29.7214 0 30.8009 2.43269 31.1368 3.41354C31.946 3.79996 33.6817 4.89976 33.6817 7.20885V15.2187C33.6817 16.2231 38.5078 17.0083 39.9482 18.2943C40.5308 18.8152 41.0651 19.294 41.4635 19.6929C41.7274 19.9572 42.0325 20.2258 42.3573 20.5118L42.3868 20.5377C44.1209 22.063 44.0798 25.5204 44.0798 29.6364V32.8404C44.0798 34.4099 43.4283 35.8264 42.3868 36.8453Z" fill="#EA5342"/>
<path d="M54.7083 14.4176H53.519C52.5645 14.4176 51.6487 14.0381 50.9738 13.362L49.4829 11.8689C48.8077 11.1931 47.8924 10.8133 46.9377 10.8133H41.23C40.6593 10.8608 40.1254 11.0239 39.515 11.4307L39.507 11.4372C39.0753 11.7269 36.5146 14.3338 36.1456 14.7034C34.4422 16.4091 34.9303 21.1002 38.3079 21.5763C40.5328 21.8873 43.6296 20.1687 43.6296 18.0221C43.6296 16.4577 44.3421 16.5203 44.8293 14.8777C44.1155 15.2947 43.6296 16.0613 43.6296 16.9464V18.0221C43.7047 19.2612 41.3426 21.176 39.8804 21.9645C39.7504 21.9645 38.5697 22.801 38.4392 22.7904C36.2356 24.0749 32.3547 26.3564 30.8556 27.3617C30.7205 27.4464 30.5931 27.5382 30.4657 27.6333C28.7413 28.9192 27.7121 31.0901 28.1227 33.4917C28.2041 33.9674 28.3609 34.4186 28.5527 34.8519L28.539 34.8428H25.0331C24.0393 34.8428 23.2335 35.6497 23.2335 36.645C23.2335 37.6403 24.0393 38.4472 25.0331 38.4472H40.0125C40.5583 38.4472 41.0161 38.0855 41.1736 37.5998C41.5635 36.3983 39.7615 34.9549 38.1548 34.858C38.5734 34.145 39.0555 33.6406 39.8658 33.6406C39.8658 32.3678 42.2736 32.632 41.3801 31.7265H40.2178C41.2885 32.8114 39.5055 30.794 39.5055 32.4398C39.5055 32.8578 39.9589 33.2531 39.8658 33.6406C40.8154 33.6406 42.0579 33.6406 42.4299 33.6406V37.2456C42.4299 37.9091 42.9671 38.4471 43.6297 38.4471H46.0293H48.0934C49.0138 38.4471 49.608 37.4421 49.1435 36.6466C48.5905 35.6991 47.6139 35.0298 46.4736 34.8875L46.7404 32.75C48.1823 31.8632 49.2453 30.3904 49.5377 28.6853C49.9466 26.299 48.9323 24.1443 47.229 22.8551V20.4249H50.8283C52.1482 20.4249 53.7835 19.4976 54.4625 18.3642L55.737 16.237C56.2168 15.4363 55.6409 14.4176 54.7083 14.4176Z" fill="#FBBA3C"/>
<g filter="url(#filter0_d)">
<path d="M10.9175 25.6023C10.9175 26.0217 11.0223 26.4062 11.2321 26.7557C11.4418 27.0878 11.5466 27.3587 11.5466 27.5684C11.5466 27.7606 11.4942 27.9354 11.3893 28.0926C11.302 28.2499 11.1796 28.3286 11.0223 28.3286C10.7253 28.3286 10.4806 28.0752 10.2884 27.5684C10.0961 27.0616 10 26.5285 10 25.9693C10 25.1305 10.3058 24.379 10.9175 23.7149C11.5466 23.0508 12.3418 22.7188 13.303 22.7188C13.9496 22.7188 14.4302 23.0333 14.7447 23.6625C15.0768 24.2741 15.2428 24.9732 15.2428 25.7596C15.2428 26.546 15.2166 27.2887 15.1642 27.9878C15.1292 28.6694 15.0943 29.2024 15.0593 29.5868C15.0243 29.9538 14.9544 30.548 14.8496 31.3694C14.7447 32.1733 14.6748 32.7325 14.6399 33.0471C16.038 33.0471 17.5059 32.3393 19.0438 30.9238C19.2535 28.4072 19.5419 26.4412 19.9089 25.0256C20.2934 23.5926 20.6778 22.5877 21.0623 22.011C21.4468 21.4343 21.8575 21.1459 22.2944 21.1459C22.7487 21.1459 23.1157 21.3469 23.3954 21.7489C23.6924 22.1508 23.841 22.6314 23.841 23.1906C23.841 25.2528 22.9235 27.481 21.0885 29.8752C20.9837 31.2558 20.9312 32.5315 20.9312 33.7024C20.9312 34.8559 21.0973 35.9831 21.4293 37.084C21.7788 38.1676 21.9536 38.7705 21.9536 38.8928C21.9536 39.0326 21.8575 39.1375 21.6652 39.2074C21.473 39.2948 21.2633 39.3384 21.0361 39.3384C20.4244 39.3384 19.9264 39.1812 19.5419 38.8666C19.3497 38.7093 19.1924 38.1763 19.07 37.2675C18.9477 36.3588 18.8865 35.5112 18.8865 34.7248C18.8865 33.9209 18.9128 33.0558 18.9652 32.1296C17.4098 33.4578 15.9331 34.1481 14.535 34.2005C14.5175 34.4452 14.5001 34.8559 14.4826 35.4326C14.4651 35.9918 14.4389 36.4112 14.404 36.6908C14.369 36.953 14.2991 37.2588 14.1942 37.6083C14.0195 38.2549 13.6001 38.5782 12.936 38.5782C12.534 38.5782 12.333 38.2375 12.333 37.5559C12.333 36.8569 12.4379 35.651 12.6476 33.9384C11.8612 33.6063 11.468 33.0209 11.468 32.182C11.468 31.5704 11.6253 31.0548 11.9398 30.6354C12.2544 30.1985 12.6389 29.9801 13.0933 29.9801C13.2505 28.3723 13.3292 27.1315 13.3292 26.2577C13.3292 24.6848 13.0845 23.8984 12.5952 23.8984C11.4767 23.8984 10.9175 24.4664 10.9175 25.6023ZM23.0021 23.6363C23.0021 23.3741 22.9585 23.1382 22.8711 22.9285C22.8012 22.7013 22.7051 22.5877 22.5827 22.5877C22.0934 22.5877 21.6478 24.4839 21.2458 28.2761C22.4167 26.4936 23.0021 24.947 23.0021 23.6363ZM13.0146 30.8189C12.7699 30.9937 12.6476 31.2296 12.6476 31.5267C12.6476 31.8238 12.7175 32.0684 12.8573 32.2607L13.0146 30.8189Z" fill="#634203"/>
<path d="M24.5436 25.6285C24.5436 25.314 24.7097 25.0431 25.0417 24.8159C25.3738 24.5887 25.6708 24.4751 25.933 24.4751C26.4048 24.4751 26.6408 24.746 26.6408 25.2877C26.6408 25.8295 26.501 26.3014 26.2213 26.7033C25.9417 27.0878 25.5485 27.28 25.0417 27.28C24.7097 27.28 24.5436 26.7295 24.5436 25.6285ZM25.3039 38.5782C24.6223 38.5782 24.1067 38.4384 23.7572 38.1588C23.6349 38.0365 23.5737 37.5996 23.5737 36.8481C23.5737 36.0967 23.6262 34.8471 23.731 33.0995C23.8533 31.3344 23.9582 30.382 24.0456 30.2422C24.133 30.1024 24.4038 29.8402 24.8582 29.4558C25.3126 29.0713 25.6621 28.8791 25.9068 28.8791C26.1689 28.8791 26.3 29.2111 26.3 29.8752C26.3 30.05 26.2476 30.3907 26.1427 30.8975C26.0553 31.4043 25.9505 31.7713 25.8281 31.9985C25.6009 32.5752 25.4874 34.0869 25.4874 36.5336C25.4874 37.0054 25.5398 37.2413 25.6446 37.2413C25.9417 37.2239 26.3524 36.8569 26.8767 36.1403C27.401 35.4064 27.9165 34.4714 28.4233 33.3354C28.9476 32.1995 29.2622 31.6315 29.367 31.6315C29.4894 31.6315 29.5505 31.7014 29.5505 31.8412C29.5505 32.3306 29.2971 33.1083 28.7903 34.1743C27.4097 37.1103 26.2476 38.5782 25.3039 38.5782Z" fill="#634203"/>
<path d="M35.627 38.5782C35.0329 38.5782 34.5697 38.4472 34.2377 38.185C34.0979 38.0452 34.028 37.6782 34.028 37.084C34.028 36.4899 34.0542 35.7122 34.1066 34.751C33.6348 36.0093 33.1542 36.9617 32.6649 37.6083C32.1755 38.2549 31.5551 38.5782 30.8037 38.5782C30.0697 38.5782 29.4405 38.2549 28.9163 37.6083C28.4095 36.9617 28.1561 35.9306 28.1561 34.5151C28.1561 33.0995 28.5493 31.85 29.3357 30.7665C30.1396 29.683 31.1881 29.1412 32.4814 29.1412C33.1105 29.1412 33.7659 29.3859 34.4474 29.8752C34.727 26.4674 34.9804 24.545 35.2076 24.1081C35.3125 23.9159 35.5571 23.6363 35.9416 23.2693C36.3436 22.9023 36.6756 22.7188 36.9377 22.7188C37.1999 22.7188 37.331 23.1295 37.331 23.9508C37.331 24.912 37.2436 25.7421 37.0688 26.4412C36.597 28.2412 36.2999 29.3859 36.1775 29.8752C35.9329 31.7626 35.8105 33.9821 35.8105 36.5336C35.8105 37.0054 35.863 37.2413 35.9678 37.2413C36.2824 37.2239 36.7018 36.8569 37.2261 36.1403C37.7504 35.4238 38.2659 34.4976 38.7727 33.3617C39.297 32.2082 39.6116 31.6315 39.7164 31.6315C39.8388 31.6315 39.8999 31.7014 39.8999 31.8412C39.8999 32.3306 39.6465 33.1083 39.1397 34.1743C37.7591 37.1103 36.5882 38.5782 35.627 38.5782ZM32.3241 30.0849C31.8522 30.0849 31.3804 30.4606 30.9085 31.2121C30.4367 31.9636 30.2008 32.8374 30.2008 33.8335C30.2008 34.8122 30.3231 35.6161 30.5677 36.2452C30.8299 36.8743 31.1532 37.1889 31.5377 37.1889C32.3241 37.1889 33.2241 35.6161 34.2377 32.4704C34.3251 31.5092 34.3688 30.9412 34.3688 30.7665C33.862 30.3121 33.1804 30.0849 32.3241 30.0849Z" fill="#634203"/>
<path d="M40.7533 31.6053L42.1951 31.448C42.3349 31.448 42.4572 31.5267 42.5621 31.684C42.6669 31.8412 42.7194 32.0073 42.7194 32.182C42.7194 32.3568 42.6582 32.951 42.5359 33.9646C42.431 34.9782 42.3786 35.7821 42.3786 36.3763C42.3786 36.953 42.431 37.2413 42.5359 37.2413C42.833 37.2239 43.2436 36.8569 43.7679 36.1403C44.2922 35.4064 44.8078 34.4714 45.3146 33.3354C45.8388 32.1995 46.1534 31.6315 46.2583 31.6315C46.3806 31.6315 46.4418 31.7014 46.4418 31.8412C46.4418 32.3306 46.1884 33.1083 45.6815 34.1743C44.3009 37.1103 43.1388 38.5782 42.1951 38.5782C41.5135 38.5782 40.998 38.4384 40.6485 38.1588C40.5261 38.0365 40.465 37.2763 40.465 35.8782C40.465 34.4801 40.6135 33.283 40.9106 32.2869C39.897 32.2869 39.1892 31.9636 38.7873 31.317C38.5776 30.9849 38.4727 30.6092 38.4727 30.1898C38.4727 29.7703 38.5601 29.4033 38.7348 29.0888C38.9096 28.7742 39.1543 28.6169 39.4688 28.6169C39.8009 28.6169 40.098 28.7917 40.3601 29.1412C40.6397 29.4732 40.7795 29.849 40.7795 30.2684C40.7795 30.6878 40.6572 31.1073 40.4125 31.5267C40.4824 31.5791 40.596 31.6053 40.7533 31.6053Z" fill="#634203"/>
<path d="M45.1542 36.1666L45.3115 33.2306C45.3115 31.3607 45.3989 30.3383 45.5736 30.1635C45.7484 29.9888 46.0542 29.7354 46.4911 29.4033C46.9455 29.0538 47.2688 28.8791 47.461 28.8791C47.6707 28.8791 47.8018 28.914 47.8542 28.9839C47.9067 29.0538 47.9329 29.1936 47.9329 29.4033C47.9329 30.1548 47.7669 30.915 47.4348 31.684C47.1727 33.2918 47.0416 34.6112 47.0416 35.6423C47.0416 36.6734 47.1639 37.1889 47.4086 37.1889C47.828 37.1889 48.3086 36.8219 48.8504 36.0879C49.4096 35.3364 49.9776 34.2355 50.5543 32.785C50.5718 32.4005 50.5892 31.9985 50.6067 31.5791C50.6242 31.1422 50.6417 30.8276 50.6591 30.6354C50.6766 30.4257 50.6853 30.2771 50.6853 30.1898C50.7028 30.1024 50.9475 29.8665 51.4193 29.482C51.8912 29.08 52.2495 28.8791 52.4941 28.8791C52.7563 28.8791 52.8873 29.2111 52.8873 29.8752C52.8873 30.05 52.8349 30.3907 52.73 30.8975C52.6427 31.4043 52.5378 31.7713 52.4155 31.9985C52.2757 33.2393 52.1795 34.3228 52.1271 35.2491C53.8398 33.082 54.7485 31.9374 54.8534 31.815C54.9757 31.6927 55.0806 31.6315 55.1679 31.6315C55.3427 31.6315 55.4301 31.7189 55.4301 31.8937C55.4301 31.9985 55.3951 32.1121 55.3252 32.2345C54.766 33.0558 53.665 34.4976 52.0223 36.5598C51.9174 38.6394 51.8475 40.055 51.8125 40.8064C51.7252 43.0259 51.4106 44.5812 50.8688 45.4725C50.3446 46.3813 49.4009 46.8357 48.0377 46.8357C47.4436 46.8357 46.8843 46.6522 46.36 46.2852C45.8532 45.9356 45.5998 45.3152 45.5998 44.424C45.5998 43.5502 45.9319 42.6502 46.596 41.7239C47.2775 40.7977 48.5096 39.3734 50.2921 37.451L50.4494 34.5937C49.8552 35.9044 49.2698 36.9005 48.6931 37.5821C48.1164 38.2462 47.4785 38.5782 46.7795 38.5782C46.0804 38.5782 45.6348 38.4035 45.4426 38.054C45.2503 37.7044 45.1542 37.0753 45.1542 36.1666ZM50.2135 38.6831C48.2212 40.8326 47.2251 42.554 47.2251 43.8473C47.2251 44.4414 47.33 44.9308 47.5397 45.3152C47.7494 45.6997 48.0377 45.8919 48.4047 45.8919C48.964 45.8919 49.3572 45.5861 49.5844 44.9745C49.8115 44.3628 49.9776 43.122 50.0824 41.2521L50.2135 38.6831Z" fill="#634203"/>
</g>
<g filter="url(#filter1_d)">
<path d="M60.611 38.799C60.5249 38.0794 60.3534 37.3898 60.0965 36.7302C59.8405 36.0643 59.3202 35.0202 58.5355 33.5977C57.9565 32.555 57.5997 31.891 57.4649 31.6058C57.25 31.1534 57.1065 30.7469 57.0344 30.3862C56.9622 30.0254 56.9514 29.6669 57.002 29.3107C57.0959 28.649 57.3935 28.1298 57.8948 27.7531C58.397 27.37 58.9726 27.2245 59.6215 27.3166C60.2641 27.4078 60.7915 27.7163 61.2037 28.2421C61.5167 28.6435 61.7398 29.1976 61.8732 29.9046C62.1897 29.1836 62.5999 28.6707 63.104 28.3658C63.6145 28.0618 64.1465 27.949 64.7 28.0276C65.3426 28.1188 65.8554 28.4155 66.2385 28.9177C66.6215 29.4199 66.7706 29.97 66.6858 30.568C66.609 31.1088 66.3996 31.647 66.0575 32.1826C65.7217 32.7191 65.1112 33.4081 64.2259 34.2495C63.0855 35.3338 62.2648 36.2007 61.7637 36.85C61.27 37.4939 60.8857 38.1435 60.611 38.799Z" fill="#634203"/>
</g>
<defs>
<filter id="filter0_d" x="0" y="6.14594" width="65.4301" height="45.6897" filterUnits="userSpaceOnUse" color-interpolation-filters="sRGB">
<feFlood flood-opacity="0" result="BackgroundImageFix"/>
<feColorMatrix in="SourceAlpha" type="matrix" values="0 0 0 0 0 0 0 0 0 0 0 0 0 0 0 0 0 0 127 0"/>
<feOffset dy="-5"/>
<feGaussianBlur stdDeviation="5"/>
<feColorMatrix type="matrix" values="0 0 0 0 0 0 0 0 0 0 0 0 0 0 0 0 0 0 0.15 0"/>
<feBlend mode="normal" in2="BackgroundImageFix" result="effect1_dropShadow"/>
<feBlend mode="normal" in="SourceGraphic" in2="effect1_dropShadow" result="shape"/>
</filter>
<filter id="filter1_d" x="46.9708" y="12.2899" width="29.7381" height="31.5092" filterUnits="userSpaceOnUse" color-interpolation-filters="sRGB">
<feFlood flood-opacity="0" result="BackgroundImageFix"/>
<feColorMatrix in="SourceAlpha" type="matrix" values="0 0 0 0 0 0 0 0 0 0 0 0 0 0 0 0 0 0 127 0"/>
<feOffset dy="-5"/>
<feGaussianBlur stdDeviation="5"/>
<feColorMatrix type="matrix" values="0 0 0 0 0 0 0 0 0 0 0 0 0 0 0 0 0 0 0.15 0"/>
<feBlend mode="normal" in2="BackgroundImageFix" result="effect1_dropShadow"/>
<feBlend mode="normal" in="SourceGraphic" in2="effect1_dropShadow" result="shape"/>
</filter>
</defs>
</svg>
