<svg>
    <defs>
        <g>
            <svg id="cards" width="24" height="34" viewBox="0 0 24 34" fill="none" xmlns="http://www.w3.org/2000/svg">
                <rect x="0.612372" y="7.63407" width="16.1406" height="25.6631" rx="3.5" transform="rotate(-15 0.612372 7.63407)"
                      stroke="black"/>
                <rect x="7.35514" y="0.611452" width="16.1406" height="25.6631" rx="3.5"
                      transform="rotate(14.8512 7.35514 0.611452)" fill="white" stroke="black"/>
            </svg>
        </g>
        <g>
            <svg id="box" width="32" height="32" viewBox="0 0 32 32" fill="none" xmlns="http://www.w3.org/2000/svg">
                <g clip-path="url(#clip0)">
                    <path d="M30.7331 7.06066L16.2038 0.0465327C16.075 -0.0155923 15.925 -0.0155923 15.7963 0.0465327L1.26695 7.06066C1.10495 7.13885 1.00201 7.30291 1.00201 7.48278V24.5171C1.00201 24.697 1.10495 24.861 1.26695 24.9392L15.7962 31.9533C15.8606 31.9844 15.9303 32 16 32C16.0697 32 16.1394 31.9844 16.2038 31.9533L30.7331 24.9392C30.8951 24.861 30.998 24.697 30.998 24.5171V7.48285C30.998 7.30285 30.895 7.13891 30.7331 7.06066ZM16 0.98922L29.4511 7.48278L25.5519 9.36516C25.5272 9.34635 25.5011 9.32897 25.4725 9.31516L12.1128 2.86578L16 0.98922ZM11.0542 3.39578L24.4857 9.87991L21.7348 11.208L8.30883 4.72647L11.0542 3.39578ZM24.8 10.7692V15.6783L22.2304 16.9188V12.0097L24.8 10.7692ZM30.0605 24.223L16.4688 30.7843V14.7911L22.1424 12.0522C22.3755 11.9397 22.4733 11.6595 22.3607 11.4263C22.2481 11.1932 21.968 11.0953 21.7348 11.208L16 13.9764L12.6971 12.3819C12.464 12.2692 12.1838 12.3671 12.0712 12.6002C11.9586 12.8333 12.0564 13.1136 12.2895 13.2262L15.5313 14.7911V30.7843L1.93951 24.2228V8.2296L12.2895 13.2262C12.3552 13.2579 12.4246 13.2729 12.493 13.2729C12.6672 13.2729 12.8346 13.1753 12.9154 13.0078C13.028 12.7747 12.9303 12.4945 12.6971 12.3819L2.54895 7.48278L7.20552 5.23478L21.2864 12.0325C21.2885 12.0353 21.2908 12.0379 21.2929 12.0407V17.6657C21.2929 17.827 21.3758 17.9769 21.5125 18.0627C21.5883 18.1103 21.6749 18.1344 21.7617 18.1344C21.8312 18.1344 21.9009 18.119 21.9655 18.0878L25.4725 16.3947C25.6345 16.3165 25.7375 16.1525 25.7375 15.9726V10.3167L30.0605 8.22966V24.223Z" fill="black"/>
                </g>
                <defs>
                    <clipPath id="clip0">
                        <rect width="32" height="32" fill="white"/>
                    </clipPath>
                </defs>
            </svg>
        </g>
        <g>
            <svg id="house" width="32" height="32" viewBox="0 0 32 32" fill="none" xmlns="http://www.w3.org/2000/svg">
                <path d="M22.0151 16.8001C21.7543 16.7993 21.496 16.8503 21.2551 16.9501C21.0142 17.0499 20.7955 17.1964 20.6116 17.3813L20 17.993L19.3885 17.3815C19.2042 17.1972 18.9854 17.051 18.7446 16.9512C18.5037 16.8514 18.2456 16.8001 17.985 16.8001C17.7243 16.8001 17.4662 16.8514 17.2253 16.9511C16.9845 17.0509 16.7657 17.1971 16.5814 17.3814C16.397 17.5657 16.2508 17.7845 16.1511 18.0254C16.0513 18.2662 15.9999 18.5243 15.9999 18.785C15.9999 19.0456 16.0513 19.3037 16.151 19.5446C16.2508 19.7854 16.397 20.0042 16.5813 20.1886L19.6463 23.2537C19.6928 23.3001 19.7479 23.3369 19.8085 23.3621C19.8692 23.3872 19.9342 23.4001 19.9999 23.4001C20.0656 23.4001 20.1306 23.3872 20.1912 23.3621C20.2519 23.3369 20.307 23.3001 20.3535 23.2537L23.4188 20.1886C23.6964 19.9109 23.8854 19.5573 23.962 19.1722C24.0386 18.7872 23.9993 18.388 23.849 18.0253C23.6988 17.6626 23.4443 17.3526 23.1179 17.1345C22.7915 16.9164 22.4077 16.8 22.0151 16.8001ZM22.7116 19.4813L20 22.193L17.2885 19.4813C17.1079 19.2958 17.0077 19.0466 17.0095 18.7877C17.0113 18.5288 17.1149 18.2811 17.298 18.098C17.481 17.9149 17.7288 17.8113 17.9877 17.8096C18.2466 17.8078 18.4957 17.908 18.6813 18.0886L19.6463 19.0536C19.6928 19.1001 19.7479 19.1369 19.8085 19.162C19.8692 19.1871 19.9342 19.2001 19.9999 19.2001C20.0656 19.2001 20.1306 19.1871 20.1912 19.162C20.2519 19.1369 20.307 19.1001 20.3535 19.0536L21.3188 18.0885C21.5042 17.9074 21.7536 17.8068 22.0127 17.8083C22.2719 17.8099 22.52 17.9135 22.7033 18.0968C22.8866 18.28 22.9902 18.5282 22.9918 18.7873C22.9933 19.0465 22.8926 19.2959 22.7116 19.4813Z" fill="black"/>
                <path d="M29.7549 9.06983L16.2549 1.06983C16.1775 1.02397 16.0892 0.999847 15.9992 1C15.9093 1.00015 15.821 1.02458 15.7437 1.0707L2.24375 9.12827C2.16944 9.17262 2.10792 9.23549 2.06519 9.31074C2.02247 9.38599 2.00001 9.47105 2 9.55758V30.5576C2 30.6902 2.05268 30.8174 2.14645 30.9111C2.24021 31.0049 2.36739 31.0576 2.5 31.0576H2.50106L29.5011 31C29.6335 30.9997 29.7604 30.9469 29.8539 30.8532C29.9475 30.7595 30 30.6324 30 30.5V9.50002C30 9.41321 29.9774 9.32791 29.9344 9.25249C29.8914 9.17706 29.8296 9.11412 29.7549 9.06983ZM12 17.0418V18.5C12 18.5929 12.0259 18.6839 12.0747 18.7629C12.1235 18.8419 12.1933 18.9057 12.2764 18.9472L14.0188 19.8184C14.3429 19.9792 14.6258 20.2124 14.8455 20.5C15.0651 20.7876 15.2157 21.1218 15.2855 21.4769L15.5098 22.5981C15.5291 22.6949 15.5767 22.7838 15.6465 22.8536L15.6972 22.9043C15.8714 23.0782 15.9753 23.3103 15.9889 23.556C16.0025 23.8018 15.9249 24.044 15.7709 24.236L15.6097 24.4375L15.4486 24.639C15.247 24.8909 14.9946 25.0975 14.7079 25.2452C14.4211 25.393 14.1064 25.4786 13.7842 25.4964C13.4621 25.5142 13.1399 25.4639 12.8385 25.3488C12.5372 25.2336 12.2635 25.0561 12.0354 24.828L11.8538 24.6463C11.76 24.5526 11.6328 24.4999 11.5002 24.4999C11.3676 24.4999 11.2404 24.5526 11.1466 24.6463C11.0529 24.7401 11.0002 24.8673 11.0002 24.9999C11.0002 25.1325 11.0529 25.2597 11.1466 25.3535L11.3283 25.5351C11.6342 25.8411 11.9975 26.0838 12.3972 26.2493C12.7969 26.4149 13.2254 26.5 13.6581 26.5C14.0907 26.4999 14.5191 26.4145 14.9188 26.2489C15.3185 26.0832 15.6816 25.8403 15.9874 25.5343L16.6096 26.3125C16.6744 26.3936 16.7629 26.4525 16.8627 26.481L16.9973 26.5195C17.7787 26.7455 18.4767 27.1957 19.0049 27.8143C19.5332 28.433 19.8685 29.1928 19.9694 30H8.36938L8.17562 29.3701C7.66354 27.7098 7.51863 25.9581 7.75094 24.2362C7.98325 22.5144 8.58723 20.8637 9.521 19.3985L9.922 18.7685C9.93122 18.754 9.93969 18.739 9.94738 18.7236L10.0631 18.4924C10.2497 18.1157 10.5222 17.7882 10.8587 17.5363C11.1951 17.2843 11.5861 17.1149 12 17.0418ZM17.2908 25.5631L16.6371 24.746C16.8947 24.3727 17.0177 23.9229 16.9857 23.4704C16.9538 23.0179 16.7688 22.5898 16.4612 22.2565L16.2661 21.2807C16.1668 20.7762 15.9529 20.3012 15.6407 19.8925C15.3286 19.4839 14.9267 19.1525 14.4661 18.924L13 18.191V16.6839L15.0452 16.498C15.1301 16.4902 15.2115 16.461 15.2818 16.413C15.3522 16.365 15.4091 16.2998 15.4472 16.2236L15.9472 15.2236C16.0053 15.1052 16.0142 14.9686 15.972 14.8436C15.9298 14.7186 15.8399 14.6153 15.7219 14.5563C15.6039 14.4973 15.4673 14.4873 15.342 14.5285C15.2167 14.5698 15.1127 14.6589 15.0528 14.7764L14.6773 15.5273L9.751 15.975L9.19337 15.1385L9.25881 15.0948C9.63106 14.8456 9.91425 14.4844 10.0673 14.0635C10.2204 13.6425 10.2353 13.1837 10.11 12.7537L11.7236 11.9469C11.8331 11.8921 11.9188 11.7991 11.9642 11.6854L12.5767 10.1541C12.671 9.91789 12.8157 9.70506 13.0008 9.53056C13.1858 9.35605 13.4068 9.22406 13.6481 9.14383L14.8356 8.74795C15.0182 8.68747 15.2066 8.64622 15.3978 8.62489C15.5979 8.85489 15.7776 9.10186 15.9349 9.36302L16.4442 10.2118C16.8079 10.8181 17.0001 11.5118 17 12.2188V13.2642C17 13.9272 17.2634 14.5631 17.7322 15.032C18.2011 15.5008 18.837 15.7642 19.5 15.7642C20.163 15.7642 20.7989 15.5008 21.2678 15.032C21.7366 14.5631 22 13.9272 22 13.2642C21.9999 13.0615 21.9872 12.859 21.9619 12.658C22.1621 12.9166 22.3537 13.1827 22.5365 13.4564C24.1644 15.9041 25.1933 18.7005 25.54 21.6195C25.8407 24.15 25.6165 26.7153 24.8813 29.1551L24.625 30.0104L20.9764 30.0182C20.8765 28.9927 20.4722 28.0205 19.8154 27.2266C19.1586 26.4327 18.2794 25.8534 17.2908 25.5631ZM8.54438 14.1652C8.50505 14.1062 8.47872 14.0395 8.46713 13.9696C8.45554 13.8996 8.45896 13.828 8.47716 13.7595C8.49536 13.691 8.52792 13.6271 8.57269 13.5722C8.61745 13.5172 8.6734 13.4723 8.73681 13.4406L9.18681 13.2156C9.21059 13.4177 9.17813 13.6224 9.09301 13.8072C9.00788 13.992 8.8734 14.1497 8.70438 14.2629L8.639 14.3066L8.54438 14.1652ZM19.683 10.343C20.0965 10.7092 20.4276 11.1588 20.6546 11.6623C20.8816 12.1658 20.9993 12.7117 21 13.264C21.001 13.5427 20.9238 13.8162 20.7772 14.0533C20.6307 14.2904 20.4206 14.4818 20.1709 14.6056C19.9624 14.7092 19.7328 14.7631 19.5 14.7631C19.2673 14.7631 19.0376 14.7092 18.8292 14.6056C18.5794 14.4818 18.3693 14.2905 18.2228 14.0533C18.0762 13.8162 17.999 13.5427 18 13.264V12.2188C17.9999 11.3308 17.7586 10.4596 17.3018 9.69814L16.7926 8.84933C16.7781 8.8252 16.7622 8.80189 16.7474 8.77796C17.5842 9.00533 18.3736 9.38025 19.0786 9.88508C19.2849 10.0323 19.4863 10.1849 19.683 10.343ZM29 30.0011L25.6696 30.0081L25.8393 29.4425C26.6138 26.8717 26.8499 24.1689 26.533 21.5027C26.1678 18.427 25.0838 15.4805 23.3687 12.9015C22.5315 11.6442 21.5057 10.5232 20.3275 9.57789C20.2067 9.47214 20.0806 9.37164 19.9486 9.27733C19.9333 9.26647 19.9175 9.25648 19.9011 9.24739C19.8213 9.18802 19.7411 9.12902 19.6601 9.07114C18.7008 8.38391 17.6058 7.90953 16.4484 7.67977C15.806 7.55151 15.1413 7.59289 14.5197 7.79983L13.3322 8.19564C12.9529 8.32171 12.6058 8.52909 12.3149 8.80329C12.0241 9.07749 11.7967 9.4119 11.6486 9.78314L11.1062 11.1378L8.28944 12.5462C8.0992 12.6413 7.93137 12.7758 7.79708 12.9407C7.66279 13.1057 7.5651 13.2973 7.51051 13.5028C7.45592 13.7084 7.44567 13.9232 7.48044 14.1331C7.51521 14.3429 7.59421 14.5429 7.71219 14.7199L8.08375 15.2771L9.08375 16.7771C9.13367 16.852 9.20287 16.912 9.28405 16.9508C9.36523 16.9897 9.45538 17.0058 9.545 16.9977L9.99019 16.9572C9.65148 17.2659 9.37282 17.6346 9.16825 18.0447L9.06406 18.2531L8.67694 18.8613C7.66533 20.4486 7.01102 22.2369 6.75934 24.1022C6.50767 25.9675 6.66466 27.8652 7.21944 29.6638L7.33731 30.047L3 30.0563V9.84145L16.0009 2.08177L29 9.78496V30.0011Z" fill="black"/>
                <path d="M13.5 22.6875C13.8797 22.6875 14.1875 22.3797 14.1875 22C14.1875 21.6203 13.8797 21.3125 13.5 21.3125C13.1203 21.3125 12.8125 21.6203 12.8125 22C12.8125 22.3797 13.1203 22.6875 13.5 22.6875Z" fill="black"/>
                <path d="M13.8125 12.5C14.1922 12.5 14.5 12.1922 14.5 11.8125C14.5 11.4328 14.1922 11.125 13.8125 11.125C13.4328 11.125 13.125 11.4328 13.125 11.8125C13.125 12.1922 13.4328 12.5 13.8125 12.5Z" fill="black"/>
            </svg>
        </g>
        <svg id="percent" width="32" height="32" viewBox="0 0 32 32" fill="none" xmlns="http://www.w3.org/2000/svg">
            <path d="M12.3853 31.377C12.1866 31.3778 11.9887 31.3536 11.7966 31.305C10.8931 31.0731 10.3038 30.3513 9.73477 29.6533C9.43 29.2201 9.0485 28.8415 8.60756 28.5347C8.10201 28.3155 7.56022 28.1834 7.00698 28.1444C6.10176 28.0188 5.16655 27.8893 4.51732 27.2666C3.8681 26.6439 3.73318 25.745 3.6023 24.8759C3.56156 24.3449 3.42397 23.8248 3.19581 23.3394C2.87615 22.9162 2.48177 22.5499 2.03055 22.2573C1.30349 21.711 0.552206 21.1458 0.31062 20.2779C0.0799892 19.4449 0.425935 18.6118 0.760926 17.8065C1.00803 17.315 1.16263 16.7854 1.21758 16.2422C1.16263 15.6991 1.00803 15.1695 0.760926 14.678C0.425359 13.8727 0.0782595 13.0396 0.31062 12.2066C0.552206 11.3387 1.30406 10.7735 2.03055 10.2272C2.48171 9.93448 2.87608 9.56826 3.19581 9.14509C3.42326 8.65962 3.55988 8.1395 3.59941 7.60854C3.7303 6.73952 3.86522 5.84117 4.51444 5.21791C5.16367 4.59466 6.10118 4.46458 7.00525 4.33949C7.55853 4.30038 8.10032 4.16811 8.60583 3.94871C9.04677 3.64192 9.42827 3.2633 9.73304 2.83006C10.3021 2.13207 10.8914 1.41085 11.7943 1.17892C12.6638 0.957519 13.5304 1.28963 14.3699 1.61122C14.882 1.8481 15.4339 1.99596 15.9998 2.04794C16.5655 1.9953 17.117 1.84688 17.6287 1.60956C18.4676 1.28741 19.3348 0.955305 20.2031 1.17726C21.1066 1.40919 21.6958 2.13097 22.2649 2.82895C22.5697 3.2622 22.9512 3.64081 23.3921 3.9476C23.8977 4.16579 24.4393 4.29694 24.9921 4.33506C25.8974 4.46071 26.8331 4.59023 27.4824 5.21348C28.1316 5.83674 28.2665 6.73509 28.3974 7.60356C28.4381 8.13464 28.5757 8.65472 28.8039 9.14011C29.1235 9.56352 29.5179 9.92994 29.9691 10.2228C30.6962 10.7691 31.4475 11.3342 31.6891 12.2016C31.9197 13.0346 31.5738 13.8677 31.2388 14.6736C30.9916 15.1651 30.837 15.6946 30.7821 16.2378C30.837 16.7811 30.9918 17.3107 31.2393 17.802C31.5743 18.6074 31.9214 19.4404 31.6891 20.2735C31.4475 21.1414 30.6956 21.7065 29.9691 22.2528C29.518 22.5456 29.1236 22.9118 28.8039 23.335C28.5764 23.8204 28.4398 24.3406 28.4003 24.8715C28.2694 25.7405 28.1345 26.6389 27.4853 27.2621C26.836 27.8854 25.9002 28.0149 24.9956 28.1406C24.4423 28.1794 23.9005 28.3115 23.395 28.5308C22.9541 28.8376 22.5726 29.2162 22.2678 29.6494C21.6987 30.3474 21.11 31.0692 20.2066 31.3011C19.3377 31.5225 18.4705 31.1904 17.631 30.8688C17.1183 30.6323 16.5661 30.4849 15.9998 30.4332C15.4342 30.4861 14.8827 30.6347 14.371 30.8722C13.7477 31.1578 13.0742 31.329 12.3853 31.377ZM12.3847 2.21399C12.2863 2.2131 12.1882 2.22464 12.093 2.24831C11.5619 2.38448 11.1128 2.93246 10.6411 3.51309C10.2511 4.06148 9.75703 4.53449 9.18471 4.90739C8.55404 5.20314 7.87101 5.38227 7.17131 5.43544C6.51454 5.44862 5.87593 5.64477 5.33318 6.00003C4.96284 6.52159 4.75832 7.13522 4.74449 7.76629C4.68967 8.43803 4.50325 9.09381 4.19502 9.69916C3.80563 10.2495 3.3115 10.7242 2.73858 11.0984C2.13376 11.5523 1.56352 11.9841 1.42111 12.4916C1.37672 13.1086 1.51802 13.7247 1.82817 14.2668C2.136 14.8866 2.31911 15.5566 2.36785 16.2417C2.31911 16.9268 2.136 17.5968 1.82817 18.2166C1.51805 18.7586 1.37676 19.3748 1.42111 19.9917C1.56352 20.5015 2.13433 20.9327 2.73858 21.3855C3.31002 21.7599 3.80277 22.2345 4.19098 22.7842C4.49936 23.3897 4.68598 24.0457 4.74103 24.7176C4.75464 25.3486 4.95918 25.9621 5.32972 26.4833C5.87257 26.8389 6.51141 27.0353 7.16842 27.0485C7.86831 27.1013 8.55155 27.2803 9.18241 27.576C9.75494 27.9488 10.2492 28.4218 10.6394 28.9703C11.1128 29.5504 11.5619 30.0989 12.0918 30.2351C12.7341 30.2768 13.3754 30.141 13.9397 29.8437C14.5863 29.5482 15.2853 29.3726 15.9998 29.3262C16.7133 29.373 17.4111 29.5488 18.0565 29.8443C18.6209 30.1429 19.2633 30.2786 19.9062 30.2351C20.4372 30.0989 20.8863 29.5509 21.3574 28.9703C21.7478 28.4216 22.2422 27.9484 22.815 27.5754C23.4456 27.2797 24.1287 27.1008 24.8284 27.0479C25.4856 27.0348 26.1247 26.8385 26.6677 26.4828C27.038 25.9614 27.2425 25.348 27.2564 24.7171C27.3112 24.0453 27.4976 23.3896 27.8058 22.7842C28.1948 22.2339 28.6885 21.7592 29.2611 21.3849C29.8654 20.9305 30.4362 20.4993 30.5786 19.9912C30.6229 19.3744 30.4816 18.7585 30.1715 18.2166C29.8637 17.5968 29.6806 16.9268 29.6318 16.2417C29.6806 15.5566 29.8637 14.8866 30.1715 14.2668C30.4817 13.7245 30.623 13.1082 30.5786 12.4911C30.4362 11.9813 29.8659 11.5501 29.2617 11.0979C28.6899 10.7234 28.197 10.2487 27.8087 9.6986C27.5003 9.09309 27.3137 8.43714 27.2587 7.76518C27.2441 7.13407 27.0383 6.52071 26.6665 6.00003C26.1237 5.64394 25.4846 5.44737 24.8272 5.43434C24.1276 5.38134 23.4445 5.20239 22.8138 4.90684C22.2412 4.53388 21.7469 4.06067 21.3568 3.51198C20.8835 2.9319 20.4343 2.38392 19.905 2.24776C19.2623 2.20474 18.6204 2.34041 18.0559 2.63854C17.4105 2.93339 16.713 3.1086 15.9998 3.15497C15.2864 3.10815 14.5886 2.93237 13.9432 2.63688C13.4531 2.4105 12.9258 2.26742 12.3847 2.21399Z" fill="black"/>
            <path d="M15.9998 26.4641C13.8938 26.4641 11.835 25.8645 10.084 24.7413C8.33286 23.618 6.96805 22.0215 6.16211 20.1537C5.35618 18.2858 5.14531 16.2304 5.55617 14.2475C5.96703 12.2646 6.98118 10.4431 8.47036 9.01351C9.95954 7.5839 11.8569 6.61032 13.9224 6.21589C15.988 5.82146 18.129 6.0239 20.0747 6.7976C22.0204 7.5713 23.6834 8.88152 24.8534 10.5626C26.0235 12.2436 26.648 14.22 26.648 16.2418C26.6449 18.952 25.5221 21.5504 23.5258 23.4668C21.5296 25.3832 18.8229 26.4611 15.9998 26.4641ZM15.9998 7.1265C14.1218 7.1265 12.2861 7.6611 10.7246 8.6627C9.16315 9.6643 7.94615 11.0879 7.22749 12.7535C6.50883 14.4191 6.3208 16.2519 6.68717 18.0201C7.05353 19.7882 7.95785 21.4124 9.28576 22.6872C10.6137 23.962 12.3055 24.8302 14.1474 25.1819C15.9893 25.5336 17.8984 25.3531 19.6334 24.6632C21.3684 23.9733 22.8513 22.8049 23.8946 21.3059C24.938 19.8069 25.4948 18.0446 25.4948 16.2418C25.4921 13.8251 24.4908 11.5081 22.7108 9.79921C20.9307 8.09034 18.5172 7.12914 15.9998 7.1265Z" fill="black"/>
            <path d="M11.8157 21.0336C11.7017 21.0335 11.5902 21.0011 11.4954 20.9402C11.4007 20.8794 11.3268 20.793 11.2831 20.6919C11.2395 20.5907 11.2281 20.4795 11.2503 20.3721C11.2726 20.2647 11.3275 20.1661 11.4081 20.0887L19.9558 11.879C20.009 11.8261 20.0726 11.784 20.143 11.755C20.2133 11.726 20.289 11.7107 20.3655 11.71C20.4421 11.7094 20.518 11.7234 20.5889 11.7512C20.6597 11.7791 20.7241 11.8202 20.7782 11.8721C20.8324 11.9241 20.8752 11.9859 20.9042 12.0539C20.9332 12.122 20.9478 12.1949 20.9471 12.2683C20.9464 12.3418 20.9305 12.4145 20.9003 12.482C20.8701 12.5495 20.8262 12.6106 20.7711 12.6617L12.2234 20.8725C12.1151 20.9759 11.9685 21.0338 11.8157 21.0336Z" fill="black"/>
            <path d="M18.9404 21.2454C18.4956 21.2454 18.0609 21.1188 17.6911 20.8816C17.3213 20.6444 17.0331 20.3073 16.8629 19.9128C16.6927 19.5184 16.6482 19.0843 16.7349 18.6656C16.8217 18.2468 17.0358 17.8622 17.3503 17.5603C17.6648 17.2584 18.0655 17.0528 18.5017 16.9695C18.9379 16.8862 19.39 16.929 19.8009 17.0924C20.2118 17.2557 20.563 17.5324 20.81 17.8874C21.0571 18.2424 21.189 18.6598 21.189 19.0867C21.189 19.6593 20.9521 20.2083 20.5304 20.6132C20.1087 21.018 19.5367 21.2454 18.9404 21.2454ZM18.9404 18.04C18.7237 18.04 18.5119 18.1017 18.3317 18.2173C18.1516 18.3328 18.0112 18.4971 17.9283 18.6893C17.8453 18.8814 17.8236 19.0929 17.8659 19.2969C17.9082 19.5009 18.0125 19.6883 18.1657 19.8354C18.3189 19.9824 18.5141 20.0826 18.7266 20.1232C18.9391 20.1638 19.1594 20.1429 19.3596 20.0633C19.5598 19.9837 19.7309 19.8489 19.8512 19.676C19.9716 19.503 20.0359 19.2997 20.0359 19.0917C20.0359 18.8128 19.9204 18.5453 19.715 18.3481C19.5095 18.1508 19.2309 18.04 18.9404 18.04Z" fill="black"/>
            <path d="M13.0595 15.5499C12.6148 15.5499 12.18 15.4233 11.8102 15.1861C11.4404 14.9489 11.1522 14.6117 10.982 14.2173C10.8118 13.8228 10.7673 13.3888 10.8541 12.97C10.9408 12.5513 11.155 12.1667 11.4695 11.8648C11.7839 11.5629 12.1846 11.3573 12.6208 11.274C13.057 11.1907 13.5091 11.2334 13.92 11.3968C14.3309 11.5602 14.6821 11.8369 14.9292 12.1919C15.1763 12.5469 15.3082 12.9642 15.3082 13.3912C15.3082 13.9637 15.0712 14.5128 14.6495 14.9176C14.2278 15.3224 13.6559 15.5499 13.0595 15.5499ZM13.0595 12.3445C12.8428 12.3445 12.631 12.4062 12.4509 12.5217C12.2707 12.6373 12.1303 12.8015 12.0474 12.9937C11.9645 13.1859 11.9428 13.3973 11.9851 13.6013C12.0273 13.8053 12.1317 13.9927 12.2849 14.1398C12.4381 14.2869 12.6333 14.3871 12.8458 14.4276C13.0583 14.4682 13.2786 14.4474 13.4787 14.3678C13.6789 14.2882 13.85 14.1534 13.9704 13.9804C14.0907 13.8075 14.155 13.6042 14.155 13.3962C14.1551 13.258 14.1269 13.1211 14.0719 12.9934C14.017 12.8656 13.9363 12.7496 13.8345 12.6518C13.7328 12.554 13.612 12.4765 13.479 12.4235C13.346 12.3706 13.2035 12.3434 13.0595 12.3434V12.3445Z" fill="black"/>
        </svg>
    </defs>
</svg>
